<svg id="Calque_1" data-name="Calque 1" xmlns="http://www.w3.org/2000/svg" viewBox="0 0 567.97 570">
    <defs>
        <style>.cls-1{fill:#373736;}.cls-2{fill:none;}.cls-3{fill:#f39204;}</style>
    </defs>
    <title>logo-original</title>
    <path class="cls-1"
          d="M355.76,253.16V511.6h26.62q15.88,0,22.65,6t6.76,15.88q0,9.87-6.76,16t-22.65,6.12H311.76V209.16h70.4q15.88,0,22.65,6.12t6.76,16A20.32,20.32,0,0,1,404.81,247q-6.76,6.11-22.65,6.11Z"
          transform="translate(-311.76 -102.75)"/>
    <path class="cls-1"
          d="M835.72,511.3V252.87H809.11q-15.89,0-22.65-6.11A20.32,20.32,0,0,1,779.7,231q0-9.87,6.76-16t22.65-6.12h70.62V555.31h-70.4q-15.89,0-22.65-6.12t-6.76-16a20.32,20.32,0,0,1,6.76-15.78q6.76-6.11,22.65-6.11Z"
          transform="translate(-311.76 -102.75)"/>
    <path class="cls-2" d="M685.42,334.13,631.35,241l-53.41,93.08Z" transform="translate(-311.76 -102.75)"/>
    <path class="cls-1"
          d="M519.26,356.74c-2.76,4.79-5.19,9.77-8.42,15.89h240.8L595.8,102.75,440.07,372.58h39c5.58-2,9.6-6.5,13.37-13.22,27.9-49.64,56.66-98.79,85.14-148.11,5.62-9.73,11.36-19.39,17.29-29.5,12.29,11.8,14,21.65,5.22,36C572.18,263.49,546,310.31,519.26,356.74ZM630.71,240.62l54.07,93.08H577.29Z"
          transform="translate(-311.76 -102.75)"/>
    <path class="cls-2" d="M685.09,430H575.41l54.91,95.26Z" transform="translate(-311.76 -102.75)"/>
    <path class="cls-3"
          d="M751.85,391.51H509.32c2.95,5.62,5,9.87,7.34,13.94q41.71,72.32,83.5,144.6c9,15.53,8.58,18-5.69,31.35-3-5-6-9.9-8.85-14.84-31.66-54.86-63.21-109.77-95.1-164.49-2.26-3.88-5.92-8.84-9.6-10.5H440L596,661.71ZM575.42,429.6H685.1l-54.78,95.26Z"
          transform="translate(-311.76 -102.75)"/>
</svg>